<svg xmlns="http://www.w3.org/2000/svg" xmlns:xlink="http://www.w3.org/1999/xlink" preserveAspectRatio="xMidYMid" width="17" height="17" viewBox="0 0 17 17">
  <defs>
    <style>
      .cls-1 {
        fill: #e00058;
        fill-rule: evenodd;
      }
    </style>
  </defs>
  <path d="M11.347,1.937 C8.753,-0.656 4.531,-0.656 1.937,1.937 C-0.656,4.532 -0.656,8.752 1.937,11.347 C4.247,13.656 7.845,13.903 10.437,12.100 C10.492,12.358 10.617,12.604 10.817,12.805 L14.595,16.581 C15.144,17.131 16.034,17.131 16.582,16.581 C17.132,16.033 17.132,15.143 16.582,14.594 L12.805,10.816 C12.605,10.617 12.358,10.491 12.100,10.438 C13.904,7.845 13.657,4.248 11.347,1.937 ZM10.154,10.154 C8.217,12.090 5.066,12.090 3.130,10.154 C1.195,8.218 1.195,5.067 3.130,3.131 C5.066,1.194 8.217,1.194 10.154,3.131 C12.091,5.067 12.091,8.218 10.154,10.154 Z" class="cls-1"/>
</svg>
